IKResults
version=1
nRows=6
nColumns=44
inDegrees=yes

Units are S.I. units (second, meters, Newtons, ...)
Angles are in degrees.

endheader
time	ground_spine_rot_x	ground_spine_rot_y	ground_spine_rot_z	ground_spine_tx	ground_spine_ty	ground_spine_tz	clav_prot	clav_elev	scapula_abduction	scapula_elevation	scapula_upward_rot	scapula_winging	plane_elv	shoulder_elv	axial_rot	elbow_flexion	pro_sup	clav_prot_l	clav_elev_l	pitch2	roll2	yaw2	aux7jnt_r3	aux7jnt_r1	aux7jnt_r2	aux6jnt_r3	aux6jnt_r1	aux6jnt_r2	aux5jnt_r3	aux5jnt_r1	aux5jnt_r2	aux4jnt_r3	aux4jnt_r1	aux4jnt_r2	aux3jnt_r3	aux3jnt_r1	aux3jnt_r2	pitch1	roll1	yaw1	aux1jnt_r3	aux1jnt_r1	aux1jnt_r2
      0.91000000	      0.96239650	     -0.67526648	     -2.87533033	     -0.84309135	      1.08933788	      0.91358929	    -24.15035154	     -1.28354236	      5.34987882	    -16.04315396	     11.99822219	     18.54908574	    -66.28677027	     36.35652090	     51.67277089	      0.00000000	     34.32000000	     30.42326055	     -1.16071730	      0.08863953	     -0.03173266	     -0.01069401	      0.94971234	     -0.24908601	     -0.11519162	      1.11730590	     -0.28544938	     -0.13418590	      1.11730590	     -0.39271961	     -0.13418590	      0.83797942	     -0.39271961	     -0.13418590	      0.55865295	     -0.35635728	     -0.05759581	     -0.23129435	      0.01950651	     -0.04004586	     -7.36821416	      0.55882021	     -0.25468539
      0.92000000	      0.96985540	     -0.68571636	     -2.88109105	     -0.84308253	      1.08931551	      0.91355357	    -24.17111688	     -1.26448635	      5.30812156	    -16.02738907	     11.99844964	     18.56097474	    -66.24899944	     36.29582759	     52.72130324	      0.00000000	     34.32000000	     30.42326055	     -1.16071730	      0.08918074	     -0.03190283	     -0.01049842	      0.95551104	     -0.25042176	     -0.11308484	      1.12412788	     -0.28698013	     -0.13173174	      1.12412788	     -0.39482560	     -0.13173174	      0.84309591	     -0.39482560	     -0.13173174	      0.56206394	     -0.35826828	     -0.05654242	     -0.23184110	      0.01952409	     -0.04028016	     -7.38563153	      0.55932395	     -0.25617553
      0.93000000	      0.99334608	     -0.65996704	     -2.89104178	     -0.84307386	      1.08931524	      0.91340809	    -24.25865855	     -1.21693921	      5.14288098	    -15.99119741	     11.99791610	     18.61919486	    -66.04216129	     36.22458109	     50.44930560	      0.00000000	     34.32000000	     30.42326055	     -1.16071730	      0.09066871	     -0.03393319	     -0.01191136	      0.97145358	     -0.26635910	     -0.12830443	      1.14288377	     -0.30524412	     -0.14946093	      1.14288377	     -0.41995309	     -0.14946093	      0.85716283	     -0.41995309	     -0.14946093	      0.57144188	     -0.38106919	     -0.06415222	     -0.23322707	      0.02110192	     -0.03930353	     -7.42978347	      0.60452558	     -0.24996433
      0.94000000	      0.96456937	     -0.69247967	     -2.89262252	     -0.84308450	      1.08934512	      0.91359515	    -24.16404247	     -1.29735217	      5.33286765	    -16.05772139	     11.99863980	     18.56327140	    -66.19645381	     36.38824828	     52.88779442	      0.00000000	     34.32000000	     30.42326055	     -1.16071730	      0.08940629	     -0.03173175	     -0.01235768	      0.95792766	     -0.24907883	     -0.13311209	      1.12697096	     -0.28544115	     -0.15506134	      1.12697096	     -0.39270829	     -0.15506134	      0.84522822	     -0.39270829	     -0.15506134	      0.56348548	     -0.35634700	     -0.06655605	     -0.23222687	      0.01952201	     -0.03910213	     -7.39792080	      0.55926427	     -0.24868345
      0.95000000	      0.97650076	     -0.70469829	     -2.88952287	     -0.84304691	      1.08935617	      0.91349804	    -24.08133900	     -1.29199282	      5.46939837	    -16.04452383	     11.99942745	     18.49585860	    -66.34684137	     36.39043140	     51.21963667	      0.00000000	     34.32000000	     30.42326055	     -1.16071730	      0.08946275	     -0.03247415	     -0.01354004	      0.95853256	     -0.25490636	     -0.14584800	      1.12768260	     -0.29211942	     -0.16989731	      1.12768260	     -0.40189621	     -0.16989731	      0.84576195	     -0.40189621	     -0.16989731	      0.56384130	     -0.36468421	     -0.07292400	     -0.23250482	      0.02004473	     -0.03781740	     -7.40677517	      0.57423923	     -0.24051277
      0.96000000	      0.96701071	     -0.68481080	     -2.88920194	     -0.84299414	      1.08935467	      0.91356199	    -24.15329461	     -1.28830544	      5.34689639	    -16.04798904	     11.99831226	     18.55256754	    -66.32833299	     36.38434756	     50.20424799	      0.00000000	     34.32000000	     30.42326055	     -1.16071730	      0.08907406	     -0.03202414	     -0.01311903	      0.95436797	     -0.25137395	     -0.14131301	      1.12278309	     -0.28807133	     -0.16461453	      1.12278309	     -0.39632686	     -0.16461453	      0.84208732	     -0.39632686	     -0.16461453	      0.56139155	     -0.35963053	     -0.07065650	     -0.23186479	      0.02002636	     -0.03838278	     -7.38638625	      0.57371299	     -0.24410850
